<svg width="134" height="50" fill="none" xmlns="http://www.w3.org/2000/svg"><path d="M5.063 36.219c.062-.782.093-1.594.093-2.375 0-.938-.031-1.875-.125-2.813-.093-1-.125-2-.125-3v-.593c.032-2.844.219-5.657.625-8.47.063-.53.125-1.093.219-1.624.813 3.531 2.125 6.593 3.906 9.187.406.532.938.813 1.563.875.344.188.656.282 1 .282.187 0 .375-.032.531-.063.531-.156.875-.563 1.094-1.219 1.125-3.406 2.906-6.562 5.344-9.468.593-.75 1.125-1.5 1.625-2.22a24.147 24.147 0 011.937-2.405A69.426 69.426 0 0020 24.655c-.344 2.75-.5 5.532-.5 8.313 0 1.656.063 3.343.188 5a23 23 0 01.03 1.5v.343c0 1.532.126 3.063.376 4.657.25 1.718.906 3.093 2 4.156.406.281.812.438 1.25.438h.25c1.093-.126 1.656-.876 1.656-1.594a2.33 2.33 0 00-.094-.625c-.5-1.907-.75-3.938-.75-6.125 0-.657.032-1.344.063-2.063.031-.843.062-1.656.062-2.437v-.782a74.104 74.104 0 01-.062-2.624c0-2.844.218-5.657.625-8.47 1.156-7.03 3.25-13.75 6.218-20.218.125-.281.188-.563.188-.844 0-.312-.094-.625-.25-.906-.594-1.125-1.406-1.125-1.656-1.125-.407 0-.813.219-1.219.625-.031.031-.031.031-.031.063-.032.03-.032.03-.063.03a2.189 2.189 0 00-.312.25c-4.032 3-7.5 6.5-10.469 10.532a82.89 82.89 0 01-1.438 2.063c-1.53 1.968-2.875 4.062-4.093 6.25-1.031-2.344-1.75-4.813-2.219-7.438a40.758 40.758 0 01-.281-4.75c0-1.281.062-2.531.187-3.813.063-.968.125-1.937.156-2.906a2.35 2.35 0 00.063-.469c0-.406-.156-.78-.438-1.125C9.095.188 8.688 0 8.22 0h-.313c-.562 0-1 .281-1.281.844l-.188.437c-.03.094-.03.157-.062.219-1.594 2.281-2.75 4.844-3.531 7.75-.75 2.875-1.313 5.625-1.656 8.281C.155 23.563 0 27.938 0 29.406c0 2.594.313 5.032.938 7.375.28.782.625 1.25 1.03 1.344.407.094.72.156.907.156.406 0 .813-.125 1.188-.375.562-.343.906-.906 1-1.687zm43.156-16.625a25.475 25.475 0 00-3.407 4.968c-.75-2.75-2.718-4.812-5.874-4.812-2.907.344-5.282 2-7.126 5.031-1.843 3-3.062 5.782-3.718 8.375-.407 1.407-.657 2.657-.719 3.75-.031 1.094-.063 1.75-.063 1.938 0 1.75.344 3.25 1.063 4.5.594 1.031 1.563 1.531 2.969 1.531.5 0 1.031-.063 1.625-.188 2.656-.78 4.906-3 6.531-5.156a72.728 72.728 0 002.188-2.968c-.032.374-.063.75-.063 1.093 0 2.188.688 4.094 2.031 5.688.407.375.875.562 1.407.562h.093c1.157-.031 2.063-.781 2.063-1.812v-.219a34.023 34.023 0 01-.282-4.313c0-5.468 1.407-10.718 4.188-15.718.156-.282.219-.594.219-.875 0-.313-.094-.594-.25-.875C50.5 19.062 49.656 19 49.406 19c-.406 0-.812.188-1.187.594zm-6.969 9.218c-.094.25-.156.5-.156.75v.125l-1.313 1.97c-.906 1.437-1.906 2.843-2.937 4.218l-.125.188c-.907 1.25-2.188 2.812-3.563 3.53-.281.094-.5.157-.687.157a.619.619 0 01-.438-.156c-.156-.219-.218-.5-.218-.844v-.25c.03-.469.093-.969.187-1.438l.063-.312c.5-3 1.53-5.813 3.124-8.406.094-.157.188-.313.282-.5.718-1.282 1.687-2.875 2.906-3.407a2.4 2.4 0 011.594.094c.531.219.968.563 1.25 1 .218.438.343.938.343 1.5v.125c-.03.625-.124 1.188-.312 1.657zm49.656-13.218a25.479 25.479 0 00-3.406 4.969c-.75-2.75-2.719-4.813-5.875-4.813-2.906.344-5.281 2-7.125 5.031-1.844 3-3.063 5.782-3.719 8.375-.406 1.407-.656 2.657-.719 3.75C70.032 34 70 34.656 70 34.844c0 1.75.344 3.25 1.063 4.5.593 1.031 1.562 1.531 2.968 1.531.5 0 1.031-.063 1.625-.188 2.656-.78 4.906-3 6.531-5.156a72.822 72.822 0 002.188-2.968c-.031.374-.063.75-.063 1.093 0 2.188.688 4.094 2.032 5.688a2.01 2.01 0 001.406.562h.094c1.156-.031 2.062-.781 2.062-1.812v-.219a34.06 34.06 0 01-.281-4.313c0-5.468 1.406-10.718 4.188-15.718a1.82 1.82 0 00.218-.875c0-.313-.094-.594-.25-.875C93.187 15.062 92.344 15 92.094 15c-.406 0-.813.188-1.188.594zm-6.969 9.219c-.093.25-.156.5-.156.75v.125l-1.312 1.968c-.906 1.438-1.906 2.844-2.938 4.219l-.125.188c-.906 1.25-2.187 2.812-3.562 3.53-.281.094-.5.157-.688.157a.618.618 0 01-.437-.156c-.156-.219-.219-.5-.219-.844v-.25c.031-.469.094-.969.188-1.438l.062-.312c.5-3 1.531-5.813 3.125-8.406.094-.157.188-.313.281-.5.719-1.282 1.688-2.875 2.906-3.407a2.407 2.407 0 011.594.094c.531.219.969.563 1.25 1 .219.438.344.938.344 1.5v.125c-.031.625-.125 1.188-.313 1.657zm24.688-3.5c-1.656 4.062-2.469 8.28-2.5 12.687.031.969.313 1.563.844 1.813.531.218 1 .343 1.343.343.376 0 .75-.062 1.094-.218.719-.344 1.125-.97 1.219-1.938.219-6.219 1.844-12.031 4.875-17.438.156-.343.219-.656.219-.937 0-.406-.125-.781-.375-1.125-.344-.469-.813-.719-1.406-.719a2.72 2.72 0 00-.5.063c-3.969 1.562-7.25 4.062-9.844 7.531-.282.281-.532.594-.782.875a127.525 127.525 0 00-4.687 5.438c.844-2.594 1.906-5.188 3.156-7.844.094-.282.157-.532.157-.782 0-.28-.063-.593-.219-.875-.594-1.03-1.313-1.093-1.531-1.093-.407 0-.782.218-1.188.625-3.906 5.281-5.906 11.218-6 17.843 0 1.407 1.125 2.063 2.094 2.063.125 0 .25 0 .344-.031.593-.063 1.093-.375 1.468-.969 2.406-3.906 5.219-7.531 8.375-10.875.438-.5.875-1.031 1.344-1.594a52.415 52.415 0 012.5-2.843z" fill="#5FB709"/><path fill-rule="evenodd" clip-rule="evenodd" d="M60.094 37.125a15.942 15.942 0 004.281 3.781c.035.026.068.053.101.08 10.442 5.356 42.839.255 69.524-7.892-28.473 10.964-57 17.5-71 11.5a15.632 15.632 0 01-1.474-.724c-2.633-1.404-4.617-3.57-5.932-6.495a2.378 2.378 0 00-.032.234 2.359 2.359 0 01-.03.235 49.167 49.167 0 01-.938 6.781c-.157.531-.469.906-1 1.125-.282.094-.532.156-.813.156-.25 0-.562-.062-.937-.218-.375-.126-.625-.47-.719-1.063A56.667 56.667 0 0151 40.656c0-6.093.906-12.125 2.75-18.093a82.45 82.45 0 018.188-21.25c.374-.563.874-.844 1.5-.844.624 0 1.156.219 1.562.625a1.3 1.3 0 01.406.968c0 .22-.031.438-.125.657l-.375.875c-2.719 6.375-5 12.906-6.844 19.593-.406 1.625-.75 3.25-1.093 4.875 2.843-3.218 6.125-5.812 9.843-7.78.344-.157.657-.25.938-.25.625 0 1.594.5 1.688 1.718v.188c0 .53-.282 1-.813 1.406-4.313 2.531-7.969 5.75-10.938 9.656a26.864 26.864 0 002.407 4.125z" fill="#FCCA1B"/></svg>