<svg width="134" height="50" viewBox="0 0 134 50" fill="none" xmlns="http://www.w3.org/2000/svg">
<path d="M5.0625 36.2188C5.125 35.4375 5.15625 34.625 5.15625 33.8438C5.15625 32.9062 5.125 31.9688 5.03125 31.0312C4.9375 30.0312 4.90625 29.0312 4.90625 28.0312V27.4375C4.9375 24.5938 5.125 21.7812 5.53125 18.9688C5.59375 18.4375 5.65625 17.875 5.75 17.3438C6.5625 20.875 7.875 23.9375 9.65625 26.5312C10.0625 27.0625 10.5938 27.3438 11.2188 27.4062C11.5625 27.5938 11.875 27.6875 12.2188 27.6875C12.4062 27.6875 12.5938 27.6562 12.75 27.625C13.2812 27.4688 13.625 27.0625 13.8438 26.4062C14.9688 23 16.75 19.8438 19.1875 16.9375C19.7812 16.1875 20.3125 15.4375 20.8125 14.7188C21.4062 13.875 22.0625 13.0625 22.75 12.3125C21.4375 16.4062 20.5312 20.5312 20 24.6562C19.6562 27.4062 19.5 30.1875 19.5 32.9688C19.5 34.625 19.5625 36.3125 19.6875 37.9688C19.7188 38.4375 19.7188 38.9375 19.7188 39.4688V39.8125C19.7188 41.3438 19.8438 42.875 20.0938 44.4688C20.3438 46.1875 21 47.5625 22.0938 48.625C22.5 48.9062 22.9062 49.0625 23.3438 49.0625H23.5938C24.6875 48.9375 25.25 48.1875 25.25 47.4688C25.25 47.2812 25.2188 47.0625 25.1562 46.8438C24.6562 44.9375 24.4062 42.9062 24.4062 40.7188C24.4062 40.0625 24.4375 39.375 24.4688 38.6562C24.5 37.8125 24.5312 37 24.5312 36.2188V35.4375C24.5 34.5625 24.4688 33.6875 24.4688 32.8125C24.4688 29.9688 24.6875 27.1562 25.0938 24.3438C26.25 17.3125 28.3438 10.5938 31.3125 4.125C31.4375 3.84375 31.5 3.5625 31.5 3.28125C31.5 2.96875 31.4062 2.65625 31.25 2.375C30.6562 1.25 29.8438 1.25 29.5938 1.25C29.1875 1.25 28.7812 1.46875 28.375 1.875C28.3438 1.90625 28.3438 1.90625 28.3438 1.9375C28.3125 1.96875 28.3125 1.96875 28.2812 1.96875C28.1875 2.03125 28.0625 2.125 27.9688 2.21875C23.9375 5.21875 20.4688 8.71875 17.5 12.75C17.0312 13.4375 16.5625 14.125 16.0625 14.8125C14.5312 16.7812 13.1875 18.875 11.9688 21.0625C10.9375 18.7188 10.2188 16.25 9.75 13.625C9.5625 12.0312 9.46875 10.4375 9.46875 8.875C9.46875 7.59375 9.53125 6.34375 9.65625 5.0625C9.71875 4.09375 9.78125 3.125 9.8125 2.15625C9.84375 2 9.875 1.84375 9.875 1.6875C9.875 1.28125 9.71875 0.90625 9.4375 0.5625C9.09375 0.1875 8.6875 0 8.21875 0H7.90625C7.34375 0 6.90625 0.28125 6.625 0.84375L6.4375 1.28125C6.40625 1.375 6.40625 1.4375 6.375 1.5C4.78125 3.78125 3.625 6.34375 2.84375 9.25C2.09375 12.125 1.53125 14.875 1.1875 17.5312C0.15625 23.5625 0 27.9375 0 29.4062C0 32 0.3125 34.4375 0.9375 36.7812C1.21875 37.5625 1.5625 38.0312 1.96875 38.125C2.375 38.2188 2.6875 38.2812 2.875 38.2812C3.28125 38.2812 3.6875 38.1562 4.0625 37.9062C4.625 37.5625 4.96875 37 5.0625 36.2188Z" fill="white"/>
<path d="M48.2188 19.5938C46.875 21.125 45.75 22.7812 44.8125 24.5625C44.0625 21.8125 42.0938 19.75 38.9375 19.75C36.0312 20.0938 33.6562 21.75 31.8125 24.7812C29.9688 27.7812 28.75 30.5625 28.0938 33.1562C27.6875 34.5625 27.4375 35.8125 27.375 36.9062C27.3438 38 27.3125 38.6562 27.3125 38.8438C27.3125 40.5938 27.6562 42.0938 28.375 43.3438C28.9688 44.375 29.9375 44.875 31.3438 44.875C31.8438 44.875 32.375 44.8125 32.9688 44.6875C35.625 43.9062 37.875 41.6875 39.5 39.5312C40.25 38.5625 40.9688 37.5938 41.6875 36.5625C41.6562 36.9375 41.625 37.3125 41.625 37.6562C41.625 39.8438 42.3125 41.75 43.6562 43.3438C44.0625 43.7188 44.5312 43.9062 45.0625 43.9062H45.1562C46.3125 43.875 47.2188 43.125 47.2188 42.0938V41.875C47.0312 40.4062 46.9375 38.9688 46.9375 37.5625C46.9375 32.0938 48.3438 26.8438 51.125 21.8438C51.2812 21.5625 51.3438 21.25 51.3438 20.9688C51.3438 20.6562 51.25 20.375 51.0938 20.0938C50.5 19.0625 49.6562 19 49.4062 19C49 19 48.5938 19.1875 48.2188 19.5938ZM41.25 28.8125C41.1562 29.0625 41.0938 29.3125 41.0938 29.5625V29.6875L39.7812 31.6562C38.875 33.0938 37.875 34.5 36.8438 35.875L36.7188 36.0625C35.8125 37.3125 34.5312 38.875 33.1562 39.5938C32.875 39.6875 32.6562 39.75 32.4688 39.75C32.2812 39.75 32.125 39.6875 32.0312 39.5938C31.875 39.375 31.8125 39.0938 31.8125 38.75V38.5C31.8438 38.0312 31.9062 37.5312 32 37.0625L32.0625 36.75C32.5625 33.75 33.5938 30.9375 35.1875 28.3438C35.2812 28.1875 35.375 28.0312 35.4688 27.8438C36.1875 26.5625 37.1562 24.9688 38.375 24.4375C38.5938 24.375 38.8125 24.3438 39.0312 24.3438C39.3438 24.3438 39.6562 24.4062 39.9688 24.5312C40.5 24.75 40.9375 25.0938 41.2188 25.5312C41.4375 25.9688 41.5625 26.4688 41.5625 27.0312V27.1562C41.5312 27.7812 41.4375 28.3438 41.25 28.8125Z" fill="white"/>
<path d="M90.9062 15.5938C89.5625 17.125 88.4375 18.7812 87.5 20.5625C86.75 17.8125 84.7812 15.75 81.625 15.75C78.7188 16.0938 76.3438 17.75 74.5 20.7812C72.6562 23.7812 71.4375 26.5625 70.7812 29.1562C70.375 30.5625 70.125 31.8125 70.0625 32.9062C70.0312 34 70 34.6562 70 34.8438C70 36.5938 70.3438 38.0938 71.0625 39.3438C71.6562 40.375 72.625 40.875 74.0312 40.875C74.5312 40.875 75.0625 40.8125 75.6562 40.6875C78.3125 39.9062 80.5625 37.6875 82.1875 35.5312C82.9375 34.5625 83.6562 33.5938 84.375 32.5625C84.3438 32.9375 84.3125 33.3125 84.3125 33.6562C84.3125 35.8438 85 37.75 86.3438 39.3438C86.75 39.7188 87.2188 39.9062 87.75 39.9062H87.8438C89 39.875 89.9062 39.125 89.9062 38.0938V37.875C89.7188 36.4062 89.625 34.9688 89.625 33.5625C89.625 28.0938 91.0312 22.8438 93.8125 17.8438C93.9688 17.5625 94.0312 17.25 94.0312 16.9688C94.0312 16.6562 93.9375 16.375 93.7812 16.0938C93.1875 15.0625 92.3438 15 92.0938 15C91.6875 15 91.2812 15.1875 90.9062 15.5938ZM83.9375 24.8125C83.8438 25.0625 83.7812 25.3125 83.7812 25.5625V25.6875L82.4688 27.6562C81.5625 29.0938 80.5625 30.5 79.5312 31.875L79.4062 32.0625C78.5 33.3125 77.2188 34.875 75.8438 35.5938C75.5625 35.6875 75.3438 35.75 75.1562 35.75C74.9688 35.75 74.8125 35.6875 74.7188 35.5938C74.5625 35.375 74.5 35.0938 74.5 34.75V34.5C74.5312 34.0312 74.5938 33.5312 74.6875 33.0625L74.75 32.75C75.25 29.75 76.2812 26.9375 77.875 24.3438C77.9688 24.1875 78.0625 24.0312 78.1562 23.8438C78.875 22.5625 79.8438 20.9688 81.0625 20.4375C81.2812 20.375 81.5 20.3438 81.7188 20.3438C82.0312 20.3438 82.3438 20.4062 82.6562 20.5312C83.1875 20.75 83.625 21.0938 83.9062 21.5312C84.125 21.9688 84.25 22.4688 84.25 23.0312V23.1562C84.2188 23.7812 84.125 24.3438 83.9375 24.8125Z" fill="white"/>
<path d="M108.625 21.3125C106.969 25.375 106.156 29.5938 106.125 34C106.156 34.9688 106.438 35.5625 106.969 35.8125C107.5 36.0312 107.969 36.1562 108.312 36.1562C108.688 36.1562 109.062 36.0938 109.406 35.9375C110.125 35.5938 110.531 34.9688 110.625 34C110.844 27.7812 112.469 21.9688 115.5 16.5625C115.656 16.2188 115.719 15.9062 115.719 15.625C115.719 15.2188 115.594 14.8438 115.344 14.5C115 14.0312 114.531 13.7812 113.938 13.7812C113.781 13.7812 113.594 13.8125 113.438 13.8438C109.469 15.4062 106.188 17.9062 103.594 21.375C103.312 21.6562 103.062 21.9688 102.812 22.25C101.188 24.0312 99.625 25.8438 98.125 27.6875C98.9688 25.0938 100.031 22.5 101.281 19.8438C101.375 19.5625 101.438 19.3125 101.438 19.0625C101.438 18.7812 101.375 18.4688 101.219 18.1875C100.625 17.1562 99.9062 17.0938 99.6875 17.0938C99.2812 17.0938 98.9062 17.3125 98.5 17.7188C94.5938 23 92.5938 28.9375 92.5 35.5625C92.5 36.9688 93.625 37.625 94.5938 37.625C94.7188 37.625 94.8438 37.625 94.9375 37.5938C95.5312 37.5312 96.0312 37.2188 96.4062 36.625C98.8125 32.7188 101.625 29.0938 104.781 25.75C105.219 25.25 105.656 24.7188 106.125 24.1562C106.906 23.1875 107.75 22.25 108.625 21.3125Z" fill="white"/>
<path fill-rule="evenodd" clip-rule="evenodd" d="M60.0938 37.125C61.3125 38.6562 62.7188 39.9062 64.375 40.9062C64.4097 40.9325 64.4434 40.9594 64.476 40.9868C74.9185 46.3417 107.315 41.2407 134 33.0938C105.527 44.0577 77 50.5938 63 44.5938C62.4871 44.374 61.9957 44.1327 61.5258 43.8699C58.893 42.4658 56.909 40.3009 55.5938 37.375C55.5781 37.4531 55.5703 37.5312 55.5625 37.6094C55.5547 37.6875 55.5469 37.7656 55.5312 37.8438C55.375 40.125 55.0625 42.4062 54.5938 44.625C54.4375 45.1562 54.125 45.5312 53.5938 45.75C53.3125 45.8438 53.0625 45.9062 52.7812 45.9062C52.5312 45.9062 52.2188 45.8438 51.8438 45.6875C51.4688 45.5625 51.2188 45.2188 51.125 44.625C51.0312 43.2812 51 41.9688 51 40.6562C51 34.5625 51.9062 28.5312 53.75 22.5625C55.5 15.0938 58.2188 8.03125 61.9375 1.3125C62.3125 0.75 62.8125 0.46875 63.4375 0.46875C64.0625 0.46875 64.5938 0.6875 65 1.09375C65.2812 1.375 65.4062 1.6875 65.4062 2.0625C65.4062 2.28125 65.375 2.5 65.2812 2.71875L64.9062 3.59375C62.1875 9.96875 59.9062 16.5 58.0625 23.1875C57.6562 24.8125 57.3125 26.4375 56.9688 28.0625C59.8125 24.8438 63.0938 22.25 66.8125 20.2812C67.1562 20.125 67.4688 20.0312 67.75 20.0312C68.375 20.0312 69.3438 20.5312 69.4375 21.75V21.9375C69.4375 22.4688 69.1562 22.9375 68.625 23.3438C64.3125 25.875 60.6562 29.0938 57.6875 33C58.375 34.4688 59.1875 35.8438 60.0938 37.125Z" fill="white"/>
</svg>
